<?xml version="1.0" encoding="utf-8"?>
<svg version="1.1" id="Layer_3" xmlns="http://www.w3.org/2000/svg" xmlns:xlink="http://www.w3.org/1999/xlink" x="0px" y="0px"
	 viewBox="0 0 256 256" style="enable-background:new 0 0 256 256;" xml:space="preserve">
<style type="text/css">
	.st0{fill:none;stroke:#FFFFFF;stroke-width:10;stroke-linejoin:round;}
	.st1{fill:none;stroke:#FFFFFF;stroke-width:10;stroke-linejoin:round;stroke-dasharray:22.1217,17.6973;}
	.st2{fill:none;stroke:#FFFFFF;stroke-width:10;}
	.st3{fill:#FFFFFF;stroke:#FFFFFF;stroke-width:10;}
</style>
<g>
	<g>
		<g>
			<polyline class="st0" points="199.2,210.7 199.2,220.7 189.2,220.7 			"/>
			<line class="st1" x1="171.5" y1="220.7" x2="60.9" y2="220.7"/>
			<polyline class="st0" points="52.1,220.7 42.1,220.7 42.1,210.7 			"/>
			<line class="st1" x1="42.1" y1="193" x2="42.1" y2="82.4"/>
			<polyline class="st0" points="42.1,73.5 42.1,63.5 52.1,63.5 			"/>
			<line class="st1" x1="69.8" y1="63.5" x2="180.4" y2="63.5"/>
			<polyline class="st0" points="189.2,63.5 199.2,63.5 199.2,73.5 			"/>
			<line class="st1" x1="199.2" y1="91.2" x2="199.2" y2="201.8"/>
		</g>
	</g>
	<g>
		<path class="st2" d="M231.8,83.9L144.7,171c-1.4,1.4-3.7,1.4-5.2,0l-43.4-43.4c-1.4-1.4-1.4-3.7,0-5.2l87.2-87.1
			c1.4-1.4,3.7-1.4,5.2,0l43.4,43.4C233.3,80.1,233.3,82.4,231.8,83.9z"/>
		<path class="st3" d="M231.8,83.9L181.8,134c-1.4,1.4-3.7,1.4-5.2,0l-43.4-43.4c-1.4-1.4-1.4-3.7,0-5.2l50.2-50.1
			c1.4-1.4,3.7-1.4,5.2,0l43.4,43.4C233.3,80.1,233.3,82.4,231.8,83.9z"/>
	</g>
	<path class="st2" d="M231.8,83.9L144.7,171c-1.4,1.4-3.7,1.4-5.2,0l-43.4-43.4c-1.4-1.4-1.4-3.7,0-5.2l87.2-87.1
		c1.4-1.4,3.7-1.4,5.2,0l43.4,43.4C233.3,80.1,233.3,82.4,231.8,83.9z"/>
</g>
</svg>
