<?xml version="1.0" encoding="utf-8"?>
<svg version="1.1" id="Layer_3" xmlns="http://www.w3.org/2000/svg" xmlns:xlink="http://www.w3.org/1999/xlink" x="0px" y="0px"
	 viewBox="0 0 256 256" style="enable-background:new 0 0 256 256;" xml:space="preserve">
<style type="text/css">
	.st0{fill:none;stroke:#FFFFFF;stroke-width:8;stroke-linecap:round;stroke-linejoin:round;stroke-dasharray:12,16;}
	.st1{fill:none;stroke:#FFFFFF;stroke-width:8;stroke-linecap:round;stroke-linejoin:round;}
	.st2{fill:#FFFFFF;}
	.st3{fill:none;stroke:#FFFFFF;stroke-width:6;}
	.st4{fill:#FFFFFF;stroke:#FFFFFF;stroke-width:6;}
</style>
<g>
	<path class="st0" d="M26.3,94.2c0,1.1,18.1,53.9,20.3,53.6s48.2-19.2,48.2-19.2l51.5,13.3l7-116.1l-67.9-3.6L50.7,39.4l-30.3-9.2
		L26.3,94.2z"/>
	<path class="st1" d="M46.9,68.3c0.2,0.8,7.3,46.1,7.3,46.1l24.1-17.9l42.5,17.9l5.4-69.6H78.6L46.9,68.3z"/>
</g>
<g>
	<path class="st2" d="M159.9,197.8h23.5v38c-3.8,2-10.2,3.8-19.7,3.8c-23.3,0-35.8-15.8-35.8-37.4s12.4-37.4,35.8-37.4
		c8.3,0,14.9,1.8,17.7,3.2l-0.7,12c-4.3-2.6-10.1-4.5-16.8-4.5c-14.2,0-21.8,11.7-21.8,26.8c0,16.3,7.4,26.8,21,26.8
		c3.2,0,5.9-0.7,7.7-1.3V208h-11V197.8z"/>
	<path class="st2" d="M244.7,237c-2.7,1.5-9.2,2.6-15.8,2.6c-22.1,0-33.4-16.2-33.4-37.4s11.3-37.4,33-37.4c7.4,0,13.4,2,16.2,3
		l-0.8,12c-2.7-1.3-7-4-13.8-4c-11,0-20.5,7.5-20.5,26.3s9.5,26.3,20.5,26.3c6.5,0,10.8-1.6,13.8-3.8L244.7,237z"/>
</g>
<g>
	<path class="st3" d="M33,216.9l62.3-62.3c1.1-1.1,2.1-1.5,2.6-1.2l11.5,11.5c0.3,0.3-0.2,1.5-1.2,2.6L46,229.9
		c-1.1,1.1-2.1,1.5-2.6,1.2l-11.6-11.5C31.5,219.2,31.9,218,33,216.9z"/>
	<g>
		<path class="st3" d="M33,216.9l62.3-62.3c1.1-1.1,2.1-1.5,2.6-1.2l11.5,11.5c0.3,0.3-0.2,1.5-1.2,2.6L46,229.9
			c-1.1,1.1-2.1,1.5-2.6,1.2l-11.6-11.5C31.5,219.2,31.9,218,33,216.9z"/>
		<path class="st4" d="M33.4,216.6L77,173c1.2-1.2,2.6-1.9,3-1.6L91.5,183c0.3,0.3-0.3,1.7-1.6,3l-43.6,43.6c-1.2,1.2-2.6,1.9-3,1.6
			l-11.5-11.5C31.5,219.2,32.1,217.9,33.4,216.6z"/>
	</g>
</g>
</svg>
