<?xml version="1.0" encoding="utf-8"?>
<svg version="1.1" id="Layer_3" xmlns="http://www.w3.org/2000/svg" xmlns:xlink="http://www.w3.org/1999/xlink" x="0px" y="0px"
	 viewBox="0 0 256 256" style="enable-background:new 0 0 256 256;" xml:space="preserve">
<style type="text/css">
	.st0{fill:none;stroke:#FFFFFF;stroke-width:8;stroke-linecap:round;stroke-linejoin:round;stroke-dasharray:12,16;}
	.st1{fill:none;stroke:#FFFFFF;stroke-width:8;stroke-linecap:round;stroke-linejoin:round;}
	.st2{fill:#FFFFFF;}
</style>
<g>
	<path class="st0" d="M26.3,94.2c0,1.1,18.1,53.9,20.3,53.6s48.2-19.2,48.2-19.2l51.5,13.3l7-116.1l-67.9-3.6L50.7,39.4l-30.3-9.2
		L26.3,94.2z"/>
	<path class="st1" d="M46.9,68.3c0.2,0.8,7.3,46.1,7.3,46.1l24.1-17.9l42.5,17.9l5.4-69.6H78.6L46.9,68.3z"/>
</g>
<g>
	<path class="st2" d="M143,189.5h28.2v45.6c-4.5,2.4-12.2,4.5-23.6,4.5c-28,0-42.9-19-42.9-44.9s14.9-44.9,42.9-44.9
		c10,0,17.9,2.2,21.2,3.8L168,168c-5.1-3.1-12.1-5.4-20.1-5.4c-17,0-26.1,14-26.1,32.1c0,19.6,8.9,32.1,25.2,32.1
		c3.8,0,7.1-0.8,9.2-1.6v-23.5H143V189.5z"/>
	<path class="st2" d="M244.7,236.5c-3.2,1.8-11,3.1-18.9,3.1c-26.5,0-40.1-19.4-40.1-44.9s13.6-44.9,39.6-44.9
		c8.9,0,16.1,2.4,19.4,3.6l-0.9,14.4c-3.2-1.6-8.4-4.8-16.5-4.8c-13.2,0-24.6,9-24.6,31.6s11.4,31.6,24.6,31.6
		c7.8,0,12.9-1.9,16.5-4.5L244.7,236.5z"/>
</g>
</svg>
