<?xml version="1.0" encoding="utf-8"?>
<svg version="1.1" id="Layer_3" xmlns="http://www.w3.org/2000/svg" xmlns:xlink="http://www.w3.org/1999/xlink" x="0px" y="0px"
	 viewBox="0 0 256 256" style="enable-background:new 0 0 256 256;" xml:space="preserve">
<style type="text/css">
	.st0{fill:none;stroke:#FFFFFF;stroke-width:10;}
	.st1{fill:#FFFFFF;stroke:#FFFFFF;stroke-width:10;}
	.st2{fill:#FFFFFF;stroke:#FFFFFF;stroke-width:10;stroke-linejoin:round;}
</style>
<g>
	<path class="st0" d="M36,198.5L139.8,94.7c1.7-1.7,3.6-2.5,4.2-1.9l19.2,19.2c0.6,0.6-0.3,2.5-1.9,4.2L57.5,220.1
		c-1.7,1.7-3.6,2.5-4.2,1.9L34,202.8C33.4,202.2,34.2,200.3,36,198.5z"/>
	<g>
		<path class="st0" d="M36,198.5L139.8,94.7c1.7-1.7,3.6-2.5,4.2-1.9l19.2,19.2c0.6,0.6-0.3,2.5-1.9,4.2L57.5,220.1
			c-1.7,1.7-3.6,2.5-4.2,1.9L34,202.8C33.4,202.2,34.2,200.3,36,198.5z"/>
		<path class="st1" d="M36.6,197.9l72.5-72.5c2-2,4.2-3.2,4.9-2.6l19.2,19.2c0.6,0.6-0.6,2.8-2.6,4.9l-72.6,72.5
			c-2,2-4.2,3.2-4.9,2.6L34,202.8C33.4,202.2,34.5,200,36.6,197.9z"/>
	</g>
</g>
<polygon class="st2" points="91,26.1 97.6,39.5 112.4,41.6 101.7,52 104.2,66.7 91,59.8 77.8,66.7 80.3,52 69.7,41.6 84.4,39.5 "/>
<polygon class="st2" points="204,16.4 211.8,32.1 229.1,34.6 216.6,46.8 219.5,64.1 204,55.9 188.5,64.1 191.5,46.8 179,34.6 
	196.3,32.1 "/>
<polygon class="st2" points="204,114.3 207.9,122.3 216.7,123.5 210.3,129.7 211.8,138.4 204,134.3 196.2,138.4 197.7,129.7 
	191.4,123.5 200.1,122.3 "/>
</svg>
